<svg xmlns="http://www.w3.org/2000/svg" viewBox="0 0 64 64" fill="none">
  <defs>
    <linearGradient id="cloud-a" x1="0%" y1="0%" x2="0%" y2="100%">
      <stop offset="0%"   stop-color="#C8D8E8"/>
      <stop offset="100%" stop-color="#9AAABB"/>
    </linearGradient>
    <linearGradient id="cloud-b" x1="0%" y1="0%" x2="0%" y2="100%">
      <stop offset="0%"   stop-color="#E0EAF4"/>
      <stop offset="100%" stop-color="#B8CAD8"/>
    </linearGradient>
  </defs>
  <!-- Back cloud -->
  <path d="M50 38 H22 C17 38 13 34 13 29 C13 24.3 16.6 20.5 21.2 20.1 C21.1 19.4 21 18.7 21 18 C21 13 25 9 30 9 C33.7 9 36.9 11.1 38.5 14.2 C39.7 13.5 41.1 13 42.5 13 C47.2 13 51 16.8 51 21.5 C51 21.8 51 22 50.9 22.4 C53.4 23.3 55 25.7 55 28.3 L55 38Z"
        fill="url(#cloud-a)"/>
  <!-- Front cloud -->
  <path d="M46 55 H12 C7 55 3 51 3 46 C3 41.3 6.6 37.5 11.2 37.1 C11.1 36.4 11 35.7 11 35 C11 29.5 15.5 25 21 25 C24.3 25 27.3 26.7 29.1 29.2 C30.3 28.5 31.7 28 33 28 C37.8 28 42 32.2 42 37 C42 37.3 42 37.7 41.9 38 C44.8 38.8 47 41.4 47 44.5 L47 55Z"
        fill="url(#cloud-b)" stroke="rgba(255,255,255,0.4)" stroke-width="0.5"/>
</svg>
