<svg xmlns="http://www.w3.org/2000/svg" viewBox="0 0 64 64" fill="none">
  <defs>
    <linearGradient id="driz-cloud" x1="0%" y1="0%" x2="0%" y2="100%">
      <stop offset="0%"   stop-color="#8A9EAE"/>
      <stop offset="100%" stop-color="#6A7E8E"/>
    </linearGradient>
  </defs>
  <path d="M50 36 H14 C9 36 5 32 5 27 C5 22.3 8.6 18.5 13.2 18.1 C13.1 17.4 13 16.7 13 16 C13 10.5 17.5 6 23 6 C26.8 6 30.2 8.1 32 11.3 C33.3 10.5 34.8 10 36.5 10 C41.5 10 45.5 14 45.5 19 C45.5 19.4 45.4 19.8 45.3 20.2 C48.2 21.1 50 23.6 50 26.5Z"
        fill="url(#driz-cloud)"/>
  <!-- Light dots -->
  <circle cx="19" cy="46" r="2" fill="#88C0E0" opacity="0.8"/>
  <circle cx="28" cy="44" r="2" fill="#88C0E0" opacity="0.8"/>
  <circle cx="37" cy="46" r="2" fill="#88C0E0" opacity="0.8"/>
  <circle cx="46" cy="44" r="2" fill="#88C0E0" opacity="0.6"/>
  <circle cx="23" cy="56" r="1.5" fill="#88C0E0" opacity="0.5"/>
  <circle cx="33" cy="56" r="1.5" fill="#88C0E0" opacity="0.5"/>
  <circle cx="43" cy="56" r="1.5" fill="#88C0E0" opacity="0.4"/>
</svg>
